<?xml version="1.0" encoding="UTF-8" standalone="no"?>
<!DOCTYPE svg PUBLIC "-//W3C//DTD SVG 1.1//EN"
 "http://www.w3.org/Graphics/SVG/1.1/DTD/svg11.dtd">
<!-- Generated by graphviz version 2.42.3 (20191010.1750)
 -->
<!-- Title: G Pages: 1 -->
<svg width="409pt" height="332pt"
 viewBox="0.00 0.00 409.13 332.00" xmlns="http://www.w3.org/2000/svg" xmlns:xlink="http://www.w3.org/1999/xlink">
<g id="graph0" class="graph" transform="scale(1 1) rotate(0) translate(4 328)">
<title>G</title>
<polygon fill="white" stroke="transparent" points="-4,4 -4,-328 405.13,-328 405.13,4 -4,4"/>
<!-- Tom Workman -->
<g id="node1" class="node">
<title>Tom Workman</title>
<polygon fill="none" stroke="black" points="201.48,-324 102.31,-324 102.31,-288 201.48,-288 201.48,-324"/>
<text text-anchor="middle" x="151.9" y="-301.8" font-family="Times,serif" font-size="14.00">Tom Workman</text>
</g>
<!-- Mike Ike -->
<g id="node2" class="node">
<title>Mike Ike</title>
<polygon fill="none" stroke="black" points="91.33,-252 24.47,-252 24.47,-216 91.33,-216 91.33,-252"/>
<text text-anchor="middle" x="57.9" y="-229.8" font-family="Times,serif" font-size="14.00">Mike Ike</text>
</g>
<!-- Tom Workman&#45;&gt;Mike Ike -->
<g id="edge1" class="edge">
<title>Tom Workman&#45;&gt;Mike Ike</title>
<path fill="none" stroke="black" d="M128.66,-287.7C116.71,-278.8 101.97,-267.82 89.05,-258.2"/>
<polygon fill="black" stroke="black" points="90.98,-255.27 80.87,-252.1 86.8,-260.88 90.98,-255.27"/>
</g>
<!-- Tye Bourne -->
<g id="node3" class="node">
<title>Tye Bourne</title>
<polygon fill="none" stroke="black" points="192.4,-252 111.39,-252 111.39,-216 192.4,-216 192.4,-252"/>
<text text-anchor="middle" x="151.9" y="-229.8" font-family="Times,serif" font-size="14.00">Tye Bourne</text>
</g>
<!-- Tom Workman&#45;&gt;Tye Bourne -->
<g id="edge2" class="edge">
<title>Tom Workman&#45;&gt;Tye Bourne</title>
<path fill="none" stroke="black" d="M151.9,-287.7C151.9,-279.98 151.9,-270.71 151.9,-262.11"/>
<polygon fill="black" stroke="black" points="155.4,-262.1 151.9,-252.1 148.4,-262.1 155.4,-262.1"/>
</g>
<!-- Toni Briggs -->
<g id="node4" class="node">
<title>Toni Briggs</title>
<polygon fill="none" stroke="black" points="295.2,-252 212.6,-252 212.6,-216 295.2,-216 295.2,-252"/>
<text text-anchor="middle" x="253.9" y="-229.8" font-family="Times,serif" font-size="14.00">Toni Briggs</text>
</g>
<!-- Tom Workman&#45;&gt;Toni Briggs -->
<g id="edge3" class="edge">
<title>Tom Workman&#45;&gt;Toni Briggs</title>
<path fill="none" stroke="black" d="M176.85,-287.88C189.94,-278.89 206.16,-267.76 220.33,-258.03"/>
<polygon fill="black" stroke="black" points="222.58,-260.73 228.85,-252.19 218.62,-254.96 222.58,-260.73"/>
</g>
<!-- Ronni Ko -->
<g id="node5" class="node">
<title>Ronni Ko</title>
<polygon fill="none" stroke="black" points="91.24,-180 20.56,-180 20.56,-144 91.24,-144 91.24,-180"/>
<text text-anchor="middle" x="55.9" y="-157.8" font-family="Times,serif" font-size="14.00">Ronni Ko</text>
</g>
<!-- Mike Ike&#45;&gt;Ronni Ko -->
<g id="edge4" class="edge">
<title>Mike Ike&#45;&gt;Ronni Ko</title>
<path fill="none" stroke="black" d="M57.4,-215.7C57.18,-207.98 56.92,-198.71 56.67,-190.11"/>
<polygon fill="black" stroke="black" points="60.17,-190 56.39,-180.1 53.17,-190.2 60.17,-190"/>
</g>
<!-- Stella Wiley -->
<g id="node6" class="node">
<title>Stella Wiley</title>
<polygon fill="none" stroke="black" points="194.19,-180 109.61,-180 109.61,-144 194.19,-144 194.19,-180"/>
<text text-anchor="middle" x="151.9" y="-157.8" font-family="Times,serif" font-size="14.00">Stella Wiley</text>
</g>
<!-- Tye Bourne&#45;&gt;Stella Wiley -->
<g id="edge5" class="edge">
<title>Tye Bourne&#45;&gt;Stella Wiley</title>
<path fill="none" stroke="black" d="M151.9,-215.7C151.9,-207.98 151.9,-198.71 151.9,-190.11"/>
<polygon fill="black" stroke="black" points="155.4,-190.1 151.9,-180.1 148.4,-190.1 155.4,-190.1"/>
</g>
<!-- Bob Johnson -->
<g id="node11" class="node">
<title>Bob Johnson</title>
<polygon fill="none" stroke="black" points="301.13,-180 212.66,-180 212.66,-144 301.13,-144 301.13,-180"/>
<text text-anchor="middle" x="256.9" y="-157.8" font-family="Times,serif" font-size="14.00">Bob Johnson</text>
</g>
<!-- Toni Briggs&#45;&gt;Bob Johnson -->
<g id="edge10" class="edge">
<title>Toni Briggs&#45;&gt;Bob Johnson</title>
<path fill="none" stroke="black" d="M254.64,-215.7C254.97,-207.98 255.37,-198.71 255.74,-190.11"/>
<polygon fill="black" stroke="black" points="259.23,-190.25 256.16,-180.1 252.24,-189.95 259.23,-190.25"/>
</g>
<!-- Rob Johnson -->
<g id="node7" class="node">
<title>Rob Johnson</title>
<polygon fill="none" stroke="black" points="195.13,-108 106.66,-108 106.66,-72 195.13,-72 195.13,-108"/>
<text text-anchor="middle" x="150.9" y="-85.8" font-family="Times,serif" font-size="14.00">Rob Johnson</text>
</g>
<!-- Stella Wiley&#45;&gt;Rob Johnson -->
<g id="edge6" class="edge">
<title>Stella Wiley&#45;&gt;Rob Johnson</title>
<path fill="none" stroke="black" d="M151.65,-143.7C151.54,-135.98 151.41,-126.71 151.28,-118.11"/>
<polygon fill="black" stroke="black" points="154.78,-118.05 151.14,-108.1 147.79,-118.15 154.78,-118.05"/>
</g>
<!-- Sam Watson -->
<g id="node8" class="node">
<title>Sam Watson</title>
<polygon fill="none" stroke="black" points="85.69,-36 0.1,-36 0.1,0 85.69,0 85.69,-36"/>
<text text-anchor="middle" x="42.9" y="-13.8" font-family="Times,serif" font-size="14.00">Sam Watson</text>
</g>
<!-- Rob Johnson&#45;&gt;Sam Watson -->
<g id="edge7" class="edge">
<title>Rob Johnson&#45;&gt;Sam Watson</title>
<path fill="none" stroke="black" d="M124.48,-71.88C110.49,-62.81 93.12,-51.55 78.01,-41.76"/>
<polygon fill="black" stroke="black" points="79.71,-38.69 69.42,-36.19 75.91,-44.57 79.71,-38.69"/>
</g>
<!-- Mina Bostock -->
<g id="node9" class="node">
<title>Mina Bostock</title>
<polygon fill="none" stroke="black" points="198.34,-36 103.46,-36 103.46,0 198.34,0 198.34,-36"/>
<text text-anchor="middle" x="150.9" y="-13.8" font-family="Times,serif" font-size="14.00">Mina Bostock</text>
</g>
<!-- Rob Johnson&#45;&gt;Mina Bostock -->
<g id="edge8" class="edge">
<title>Rob Johnson&#45;&gt;Mina Bostock</title>
<path fill="none" stroke="black" d="M150.9,-71.7C150.9,-63.98 150.9,-54.71 150.9,-46.11"/>
<polygon fill="black" stroke="black" points="154.4,-46.1 150.9,-36.1 147.4,-46.1 154.4,-46.1"/>
</g>
<!-- John Smith -->
<g id="node10" class="node">
<title>John Smith</title>
<polygon fill="none" stroke="black" points="295.8,-36 215.99,-36 215.99,0 295.8,0 295.8,-36"/>
<text text-anchor="middle" x="255.9" y="-13.8" font-family="Times,serif" font-size="14.00">John Smith</text>
</g>
<!-- Rob Johnson&#45;&gt;John Smith -->
<g id="edge9" class="edge">
<title>Rob Johnson&#45;&gt;John Smith</title>
<path fill="none" stroke="black" d="M176.58,-71.88C190.18,-62.81 207.07,-51.55 221.76,-41.76"/>
<polygon fill="black" stroke="black" points="223.73,-44.65 230.11,-36.19 219.85,-38.82 223.73,-44.65"/>
</g>
<!-- Amrita Haas -->
<g id="node12" class="node">
<title>Amrita Haas</title>
<polygon fill="none" stroke="black" points="300.54,-108 213.26,-108 213.26,-72 300.54,-72 300.54,-108"/>
<text text-anchor="middle" x="256.9" y="-85.8" font-family="Times,serif" font-size="14.00">Amrita Haas</text>
</g>
<!-- Bob Johnson&#45;&gt;Amrita Haas -->
<g id="edge11" class="edge">
<title>Bob Johnson&#45;&gt;Amrita Haas</title>
<path fill="none" stroke="black" d="M256.9,-143.7C256.9,-135.98 256.9,-126.71 256.9,-118.11"/>
<polygon fill="black" stroke="black" points="260.4,-118.1 256.9,-108.1 253.4,-118.1 260.4,-118.1"/>
</g>
<!-- Arda Huber -->
<g id="node13" class="node">
<title>Arda Huber</title>
<polygon fill="none" stroke="black" points="401.37,-108 318.42,-108 318.42,-72 401.37,-72 401.37,-108"/>
<text text-anchor="middle" x="359.9" y="-85.8" font-family="Times,serif" font-size="14.00">Arda Huber</text>
</g>
<!-- Bob Johnson&#45;&gt;Arda Huber -->
<g id="edge12" class="edge">
<title>Bob Johnson&#45;&gt;Arda Huber</title>
<path fill="none" stroke="black" d="M282.09,-143.88C295.31,-134.89 311.69,-123.76 326,-114.03"/>
<polygon fill="black" stroke="black" points="328.3,-116.71 334.6,-108.19 324.37,-110.92 328.3,-116.71"/>
</g>
</g>
</svg>
